<svg id="Capa_1" enable-background="new 0 0 512 512" height="512" viewBox="0 0 512 512" width="512" xmlns="http://www.w3.org/2000/svg" xmlns:xlink="http://www.w3.org/1999/xlink"><linearGradient id="SVGID_1_" gradientUnits="userSpaceOnUse" x1="256" x2="256" y1="512" y2="0"><stop offset="0" stop-color="#addcff"/><stop offset=".5028" stop-color="#eaf6ff"/><stop offset="1" stop-color="#eaf6ff"/></linearGradient><linearGradient id="SVGID_2_" gradientTransform="matrix(.707 .707 -.707 .707 266.971 -138.382)" gradientUnits="userSpaceOnUse" x1="164.339" x2="377.802" y1="393.4" y2="179.937"><stop offset="0" stop-color="#00c0ff"/><stop offset="1" stop-color="#5558ff"/></linearGradient><g><g><circle cx="256" cy="256" fill="url(#SVGID_1_)" r="256"/></g><g><g><path d="m372.401 105.027c-19 .648-41.849 12.063-55.552 27.776l-133.263 153.934-55.269-11.088c-2.929-.598-5.957.321-8.073 2.436l-12.63 12.63c-1.943 1.943-2.886 4.675-2.547 7.407.333 2.726 1.893 5.137 4.268 6.562l61.232 36.749 36.749 61.232c1.333 2.251 3.721 3.917 6.562 4.268 2.732.339 5.464-.604 7.407-2.547l12.63-12.63c2.115-2.115 3.034-5.143 2.436-8.072l-11.088-55.269 153.91-133.238c15.578-13.419 26.956-36.219 27.677-55.454.801-21.622-13.216-35.418-34.449-34.696zm-5.871 53.073-12.63 12.63c-3.49 3.491-9.14 3.491-12.63 0-3.491-3.49-3.491-9.139 0-12.63l12.63-12.63c3.49-3.491 9.139-3.491 12.63 0 3.49 3.491 3.49 9.14 0 12.63zm-244.312 7.807 96.12 53.398 52.792-60.985-5.027-.835 12.016-12.016c3.491-3.491 3.491-9.14 0-12.63-3.49-3.49-9.139-3.49-12.63 0l-21.051 21.051-21.664-3.596 11.14-11.14c3.49-3.49 3.49-9.139 0-12.63-3.491-3.49-9.14-3.49-12.63 0l-20.174 20.174-60.453-10.035c-2.843-.475-5.741.45-7.783 2.491l-12.63 12.63c-1.98 1.979-2.917 4.779-2.535 7.554.399 2.788 2.069 5.205 4.509 6.569zm250.627 112.178-11.139 11.139-3.596-21.664 21.05-21.05c3.49-3.491 3.49-9.14 0-12.63s-9.14-3.49-12.63 0l-12.016 12.016-.835-5.03-60.985 52.794 53.399 96.121c1.363 2.437 3.778 4.109 6.568 4.508 2.775.382 5.575-.555 7.555-2.535l12.63-12.63c2.041-2.041 2.966-4.939 2.491-7.783l-10.034-60.454 20.173-20.173c3.49-3.49 3.49-9.139 0-12.63-3.492-3.489-9.141-3.489-12.631.001z" fill="url(#SVGID_2_)"/></g></g></g></svg>